<?xml version="1.0" encoding="UTF-8" standalone="no"?>
<!-- Created with Inkscape (http://www.inkscape.org/) -->

<svg
   version="1.1"
   id="svg1"
   width="108"
   height="108"
   viewBox="0 0 108 108"
   sodipodi:docname="power_manager_calendar-color~001G.svg"
   inkscape:version="1.3.2 (091e20e, 2023-11-25, custom)"
   xml:space="preserve"
   xmlns:inkscape="http://www.inkscape.org/namespaces/inkscape"
   xmlns:sodipodi="http://sodipodi.sourceforge.net/DTD/sodipodi-0.dtd"
   xmlns="http://www.w3.org/2000/svg"
   xmlns:svg="http://www.w3.org/2000/svg"><defs
     id="defs1"><linearGradient
       id="background-gradient"
       x1="0"
       x2="100%"
       y1="0"
       y2="100%">
		<stop
   style="stop-color: red;"
   offset="0"
   id="stop1" />
		<stop
   style="stop-color: blue;"
   offset="1"
   id="stop2" />
	</linearGradient></defs><sodipodi:namedview
     id="view1"
     inkscape:showpageshadow="false"
     inkscape:pageopacity="1"
     inkscape:pagecheckerboard="true"
     inkscape:current-layer="background"
     showgrid="true"
     inkscape:window-maximized="1"
     inkscape:zoom="11.313708"
     inkscape:cx="48.26004"
     inkscape:cy="53.651729"
     inkscape:window-width="1920"
     inkscape:window-height="986"
     inkscape:window-x="-11"
     inkscape:window-y="-11"
     guidecolor="#ec86e5"
     guideopacity="0.6"
     labelstyle="default"
     inkscape:clip-to-page="false"
     showguides="true"
     inkscape:lockguides="false"
     pagecolor="#ffffff"
     bordercolor="#000000"
     borderopacity="0.25"
     inkscape:deskcolor="#d1d1d1"><inkscape:page
       x="0"
       y="0"
       inkscape:label="1"
       id="page1"
       width="108"
       height="108"
       margin="0"
       bleed="0" /><inkscape:grid
       id="grid1"
       units="px"
       originx="0"
       originy="0"
       spacingx="1"
       spacingy="1"
       empcolor="#ff0000"
       empopacity="1"
       color="#00eae5"
       opacity="0.14901961"
       empspacing="18"
       dotted="false"
       gridanglex="30"
       gridanglez="30"
       visible="true" /></sodipodi:namedview><g
     inkscape:groupmode="layer"
     id="background"
     style="display:inline"
     sodipodi:insensitive="true"><rect
       width="108"
       height="108"
       fill="#ff4500"
       id="background-rect"
       x="0"
       y="0"
       style="stroke:none;stroke-opacity:1" /></g><g
     inkscape:groupmode="layer"
     id="grid"
     style="display:inline"><path
       d="m 54.097244,36.098622 c -9.940239,0 -17.998622,8.058383 -17.998622,17.998622 0,9.940239 8.058383,17.998621 17.998622,17.998621 9.940239,0 17.998622,-8.058382 17.998622,-17.998621 0,-9.940239 -8.058383,-17.998622 -17.998622,-17.998622 m 0,0.299977 c 9.759253,0 17.698645,7.939392 17.698645,17.698645 0,9.759252 -7.939392,17.698644 -17.698645,17.698644 -9.759253,0 -17.698645,-7.939392 -17.698645,-17.698644 0,-9.759253 7.939392,-17.698645 17.698645,-17.698645"
       style="fill:none;fill-opacity:1;fill-rule:nonzero;stroke:#b3b3b3;stroke-width:0.1;stroke-dasharray:none;stroke-opacity:1"
       clip-path="url(#clipPath18)"
       id="circle2" /><path
       d="m 54.097244,28.099234 c -14.357901,0 -25.998009,11.640109 -25.998009,25.998009 0,14.357901 11.640108,25.998009 25.998009,25.998009 14.357901,0 25.998009,-11.640108 25.998009,-25.998009 0,-14.3579 -11.640108,-25.998009 -25.998009,-25.998009 m 0,0.299977 c 14.169915,0 25.698032,11.528117 25.698032,25.698032 0,14.169915 -11.528117,25.698032 -25.698032,25.698032 -14.169915,0 -25.698032,-11.528117 -25.698032,-25.698032 0,-14.169915 11.528117,-25.698032 25.698032,-25.698032"
       style="fill:none;fill-opacity:1;fill-rule:nonzero;stroke:#b3b3b3;stroke-width:0.1;stroke-miterlimit:3.8;stroke-dasharray:none;stroke-opacity:1"
       clip-path="url(#clipPath15)"
       id="path1" /><path
       d="M 78.095406,72.095867 H 30.099081 c -1.104915,0 -1.999846,-0.894931 -1.999846,-1.999847 V 38.09847 c 0,-1.104915 0.894931,-1.999846 1.999846,-1.999846 h 47.996325 c 1.104915,0 1.999847,0.894931 1.999847,1.999846 v 31.99755 c 0,1.104916 -0.894932,1.999847 -1.999847,1.999847 z"
       style="opacity:0.5;fill:none;fill-opacity:1;stroke:#fbfbfb;stroke-width:0.199985;stroke-linecap:butt;stroke-linejoin:miter;stroke-miterlimit:10;stroke-dasharray:none;stroke-opacity:0.8"
       clip-path="url(#clipPath21)"
       id="rect3" /><path
       d="M 74.095713,76.095558 H 34.098776 c -1.099916,0 -1.999847,-0.899931 -1.999847,-1.999847 V 34.098774 c 0,-1.099916 0.899931,-1.999847 1.999847,-1.999847 h 39.996937 c 1.099916,0 1.999847,0.899931 1.999847,1.999847 v 39.996937 c 0,1.099916 -0.899931,1.999847 -1.999847,1.999847 z"
       style="opacity:0.904564;fill:none;stroke:#ffffff;stroke-width:0.199985;stroke-linecap:butt;stroke-linejoin:miter;stroke-miterlimit:10;stroke-dasharray:none;stroke-opacity:1"
       clip-path="url(#clipPath27)"
       id="rect2" /><path
       d="M 36.098621,78.095407 V 30.099082 c 0,-1.104915 0.894931,-1.999847 1.999847,-1.999847 h 31.99755 c 1.104915,0 1.999846,0.894932 1.999846,1.999847 v 47.996325 c 0,1.104915 -0.894931,1.999847 -1.999846,1.999847 h -31.99755 c -1.104916,0 -1.999847,-0.894932 -1.999847,-1.999847 z"
       style="opacity:0.5;fill:none;stroke:#ffffff;stroke-width:0.199985;stroke-linecap:butt;stroke-linejoin:miter;stroke-miterlimit:10;stroke-dasharray:none;stroke-opacity:1"
       clip-path="url(#clipPath24)"
       id="rect1" /></g><g
     inkscape:groupmode="layer"
     id="foreground"
     style="display:inline;fill:none;fill-opacity:1;fill-rule:nonzero;stroke:#ffffff;stroke-width:0.5;stroke-miterlimit:0;stroke-dasharray:none;stroke-opacity:1"><path
       id="path2"
       style="display:inline;fill:#ffffff;stroke-width:1.26053"
       d="m 42.85241,30.126599 c -1.748843,0 -1.775393,5.4e-5 -3.020832,1.245441 -1.245388,1.245379 -1.245441,1.245374 -1.245441,2.994248 v 2.570241 h -3.391666 c -1.377889,0 -1.404393,2.1e-5 -2.411311,1.006947 -1.006924,1.006921 -1.006754,1.007033 -1.006754,2.38492 v 34.023052 c 0,1.377922 -1.7e-4,1.404396 1.006754,2.411309 1.006918,1.006901 1.033422,1.006946 2.411311,1.006946 h 37.414903 c 1.377862,0 1.404402,-4.5e-5 2.411312,-1.006946 1.00693,-1.006913 1.00694,-1.033387 1.00694,-2.411309 V 40.328396 c 0,-1.377887 -1e-5,-1.377999 -1.00694,-2.38492 -1.00691,-1.006926 -1.03345,-1.006947 -2.411312,-1.006947 h -3.391668 v -2.570241 c 0,-1.748874 -5.5e-5,-1.748861 -1.245441,-2.994248 -1.245439,-1.245387 -1.271787,-1.245441 -3.020636,-1.245441 h -1.69583 c -1.748883,0 -1.748879,5.4e-5 -2.994259,1.245441 -1.245392,1.245379 -1.245429,1.245374 -1.245429,2.994248 v 2.570241 H 48.787925 v -2.570241 c 0,-1.748874 -5.3e-5,-1.748861 -1.245434,-2.994248 -1.245379,-1.245387 -1.245374,-1.245441 -2.994246,-1.245441 z m 1.98e-4,3.391674 h 1.695834 c 0.370996,0 0.370871,3.5e-5 0.609332,0.238487 0.238492,0.23852 0.238492,0.238569 0.238492,0.609528 v 7.657944 c 0,0.370964 0,0.370834 -0.238492,0.609323 -0.238461,0.238494 -0.238336,0.238494 -0.609332,0.238494 h -1.695834 c -0.370989,0 -0.37106,0 -0.60952,-0.238494 -0.238462,-0.238489 -0.238493,-0.238359 -0.238493,-0.609323 v -7.657944 c 0,-0.370959 3.1e-5,-0.371008 0.238493,-0.609528 0.238455,-0.238452 0.238531,-0.238487 0.60952,-0.238487 z m 20.403191,0 h 1.695834 c 0.371003,0 0.371069,3.5e-5 0.609525,0.238487 0.238465,0.23852 0.265074,0.238569 0.265074,0.609528 v 7.657944 c 0,0.370964 -0.02661,0.370834 -0.265074,0.609323 -0.238456,0.238494 -0.238522,0.238494 -0.609525,0.238494 h -1.695834 c -0.37099,0 -0.370863,0 -0.609328,-0.238494 -0.238481,-0.238489 -0.238493,-0.238359 -0.238493,-0.609323 v -7.657944 c 0,-0.370959 1.2e-5,-0.371008 0.238493,-0.609528 0.238465,-0.238452 0.238338,-0.238487 0.609328,-0.238487 z M 35.194661,47.138319 H 72.609572 V 74.351448 H 35.194661 Z m 28.07885,2.679438 c -0.671967,-0.755963 -1.97381,0.480039 -2.848613,1.023952 -0.757945,-0.11658 -0.831102,0.972943 -0.104572,0.536022 0.507516,-0.178593 0.958407,-0.449945 1.421453,-0.664889 0.393676,-0.182743 0.796139,-0.324712 1.249656,-0.33424 -0.01928,0.820382 -1.064258,1.570143 -1.477476,2.358731 -0.396023,0.726519 -1.564414,1.803786 -1.043898,2.568869 0.91186,-0.05507 1.725501,-0.783311 2.668573,-0.840787 0.640784,-0.279761 1.839785,0.207352 2.145456,-0.408555 -0.677265,-0.538585 -2.063369,0.0032 -2.988586,0.153074 -0.551417,0.293122 -2.184247,0.91275 -1.147492,-0.184147 0.291887,-0.663658 0.900589,-1.171196 1.272408,-1.732592 0.46459,-0.70482 1.073653,-1.301579 1.232141,-2.107722 0.284446,-0.197031 -0.271459,-0.246676 -0.379042,-0.367707 z m -14.158733,0.702068 c -3.414702,1.867191 -5.657756,5.653681 -5.654605,9.545558 -0.06857,3.89126 2.110492,7.714656 5.493328,9.638992 3.346795,1.986344 7.747493,1.986444 11.094372,1.92e-4 1.703749,-0.986932 3.133085,-2.440275 4.091318,-4.160321 -3.955447,2.280985 -9.297555,1.726463 -12.683083,-1.344545 -3.375658,-2.885627 -4.646543,-7.900236 -3.085153,-12.052456 0.203135,-0.561486 0.452122,-1.106402 0.743823,-1.627412 z m 9.102576,4.224506 c 0.11563,-0.07427 -1.451524,0.483933 -2.13829,0.883248 -0.713191,-0.03843 -0.639389,0.821014 -0.03096,0.348552 0.562712,-0.09577 1.750839,-1.135445 1.909045,-0.643155 -0.687141,1.048641 -1.643345,1.966881 -2.025815,3.18895 0.592353,0.61736 1.464916,-0.435993 2.265154,-0.19938 0.391903,-0.240571 1.641447,0.200364 1.234878,-0.49771 -1.0158,0.04291 -2.046328,0.229916 -2.994833,0.650184 -0.442399,-0.07847 0.503019,-1.084745 0.727598,-1.342007 0.448927,-0.650121 0.958003,-1.49607 1.224218,-2.236416 0.103562,-0.10892 -0.356005,-0.201498 -0.344838,-0.187073 z m -3.57042,5.336603 c -0.363055,0.10373 -1.841619,0.423535 -1.367606,0.736394 0.40735,-0.295859 1.76885,-0.848095 0.960612,0.0473 -0.198953,0.421572 -1.348928,1.432133 -0.638651,1.648921 0.443217,-0.566649 1.820212,-0.151164 1.862981,-0.672862 -0.647746,-0.04157 -1.400772,0.315807 -1.928663,0.348552 0.359043,-0.622505 0.861908,-1.079454 1.205554,-1.711668 -0.05697,-0.207 0.326532,-0.516854 -0.09422,-0.396639 z"
       sodipodi:nodetypes="scscsssssssssscscscsscsccsssssscsscssssscssscsssssssscscccccsccscccccccccsssccccccssccccccccccccsccccccss" /></g><g
     inkscape:groupmode="layer"
     id="mask"
     style="display:inline;fill:none;fill-opacity:1;fill-rule:nonzero;stroke:#ffffff;stroke-width:0.5;stroke-miterlimit:0;stroke-dasharray:none;stroke-opacity:1"
     sodipodi:insensitive="true"><path
       id="rectangle-mask"
       d="M 18.247653,18.247653 H 89.752347 V 89.752348 H 18.247653 Z"
       style="stroke-width:0.495306" /><path
       d="m 25.731405,25.667311 c -9.9769,9.937313 -9.952809,46.672619 -0.06356,56.601257 9.937335,9.97693 46.672152,9.952732 56.600712,0.06356 9.976846,-9.937259 9.952786,-46.672634 0.0641,-56.600723 -9.937082,-9.976675 -46.673098,-9.952853 -56.601246,-0.0641 z"
       id="squircle-mask"
       style="stroke-width:0.499624" /><path
       id="circle-mask"
       d="M 89.749741,54.000004 A 35.749741,35.749745 0 0 1 54,89.749757 35.749741,35.749745 0 0 1 18.250259,54.000004 35.749741,35.749745 0 0 1 54,18.250259 35.749741,35.749745 0 0 1 89.749741,54.000004 Z"
       style="stroke-width:0.500519" /><rect
       style="fill:none;fill-opacity:0.878431;stroke:#ffffff;stroke-width:0.501854;stroke-miterlimit:0;stroke-dasharray:none;stroke-opacity:1"
       id="roundedsquare-mask"
       width="71.5"
       height="71.5"
       x="18.177168"
       y="18.198624"
       ry="8.33%" /></g></svg>
