<?xml version="1.0" encoding="UTF-8" standalone="no"?>
<!-- Created with Inkscape (http://www.inkscape.org/) -->

<svg
   version="1.1"
   id="svg1"
   width="108"
   height="108"
   viewBox="0 0 108 108"
   sodipodi:docname="url_webview-color~001C.svg"
   inkscape:version="1.3.2 (091e20e, 2023-11-25, custom)"
   xml:space="preserve"
   xmlns:inkscape="http://www.inkscape.org/namespaces/inkscape"
   xmlns:sodipodi="http://sodipodi.sourceforge.net/DTD/sodipodi-0.dtd"
   xmlns="http://www.w3.org/2000/svg"
   xmlns:svg="http://www.w3.org/2000/svg"><defs
     id="defs1" /><sodipodi:namedview
     id="view1"
     inkscape:showpageshadow="false"
     inkscape:pageopacity="1"
     inkscape:pagecheckerboard="true"
     inkscape:current-layer="foreground"
     showgrid="true"
     inkscape:window-maximized="1"
     inkscape:zoom="7.9999996"
     inkscape:cx="30.187502"
     inkscape:cy="63.250003"
     inkscape:window-width="1920"
     inkscape:window-height="986"
     inkscape:window-x="-11"
     inkscape:window-y="-11"
     guidecolor="#ec86e5"
     guideopacity="0.6"
     labelstyle="default"
     inkscape:clip-to-page="false"
     showguides="true"
     inkscape:lockguides="false"
     pagecolor="#ffffff"
     bordercolor="#000000"
     borderopacity="0.25"
     inkscape:deskcolor="#d1d1d1"><inkscape:page
       x="0"
       y="0"
       inkscape:label="1"
       id="page1"
       width="108"
       height="108"
       margin="0"
       bleed="0" /><inkscape:grid
       id="grid1"
       units="px"
       originx="0"
       originy="0"
       spacingx="1"
       spacingy="1"
       empcolor="#ff0000"
       empopacity="1"
       color="#00eae5"
       opacity="0.14901961"
       empspacing="18"
       dotted="false"
       gridanglex="30"
       gridanglez="30"
       visible="true" /></sodipodi:namedview><g
     inkscape:groupmode="layer"
     id="background"
     style="display:inline"
     sodipodi:insensitive="true"><rect
       width="108"
       height="108"
       fill="#ff4500"
       id="background-rect"
       x="0"
       y="0"
       style="stroke:none;stroke-opacity:1" /></g><g
     inkscape:groupmode="layer"
     id="grid"
     style="display:inline"><path
       d="m 54.097244,36.098622 c -9.940239,0 -17.998622,8.058383 -17.998622,17.998622 0,9.940239 8.058383,17.998621 17.998622,17.998621 9.940239,0 17.998622,-8.058382 17.998622,-17.998621 0,-9.940239 -8.058383,-17.998622 -17.998622,-17.998622 m 0,0.299977 c 9.759253,0 17.698645,7.939392 17.698645,17.698645 0,9.759252 -7.939392,17.698644 -17.698645,17.698644 -9.759253,0 -17.698645,-7.939392 -17.698645,-17.698644 0,-9.759253 7.939392,-17.698645 17.698645,-17.698645"
       style="fill:none;fill-opacity:1;fill-rule:nonzero;stroke:#b3b3b3;stroke-width:0.1;stroke-dasharray:none;stroke-opacity:1"
       clip-path="url(#clipPath18)"
       id="circle2" /><path
       d="m 54.097244,28.099234 c -14.357901,0 -25.998009,11.640109 -25.998009,25.998009 0,14.357901 11.640108,25.998009 25.998009,25.998009 14.357901,0 25.998009,-11.640108 25.998009,-25.998009 0,-14.3579 -11.640108,-25.998009 -25.998009,-25.998009 m 0,0.299977 c 14.169915,0 25.698032,11.528117 25.698032,25.698032 0,14.169915 -11.528117,25.698032 -25.698032,25.698032 -14.169915,0 -25.698032,-11.528117 -25.698032,-25.698032 0,-14.169915 11.528117,-25.698032 25.698032,-25.698032"
       style="fill:none;fill-opacity:1;fill-rule:nonzero;stroke:#b3b3b3;stroke-width:0.1;stroke-miterlimit:3.8;stroke-dasharray:none;stroke-opacity:1"
       clip-path="url(#clipPath15)"
       id="path1" /><path
       d="M 78.095406,72.095867 H 30.099081 c -1.104915,0 -1.999846,-0.894931 -1.999846,-1.999847 V 38.09847 c 0,-1.104915 0.894931,-1.999846 1.999846,-1.999846 h 47.996325 c 1.104915,0 1.999847,0.894931 1.999847,1.999846 v 31.99755 c 0,1.104916 -0.894932,1.999847 -1.999847,1.999847 z"
       style="opacity:0.5;fill:none;fill-opacity:1;stroke:#fbfbfb;stroke-width:0.199985;stroke-linecap:butt;stroke-linejoin:miter;stroke-miterlimit:10;stroke-dasharray:none;stroke-opacity:0.8"
       clip-path="url(#clipPath21)"
       id="rect3" /><path
       d="M 74.095713,76.095558 H 34.098776 c -1.099916,0 -1.999847,-0.899931 -1.999847,-1.999847 V 34.098774 c 0,-1.099916 0.899931,-1.999847 1.999847,-1.999847 h 39.996937 c 1.099916,0 1.999847,0.899931 1.999847,1.999847 v 39.996937 c 0,1.099916 -0.899931,1.999847 -1.999847,1.999847 z"
       style="opacity:0.904564;fill:none;stroke:#ffffff;stroke-width:0.199985;stroke-linecap:butt;stroke-linejoin:miter;stroke-miterlimit:10;stroke-dasharray:none;stroke-opacity:1"
       clip-path="url(#clipPath27)"
       id="rect2" /><path
       d="M 36.098621,78.095407 V 30.099082 c 0,-1.104915 0.894931,-1.999847 1.999847,-1.999847 h 31.99755 c 1.104915,0 1.999846,0.894932 1.999846,1.999847 v 47.996325 c 0,1.104915 -0.894931,1.999847 -1.999846,1.999847 h -31.99755 c -1.104916,0 -1.999847,-0.894932 -1.999847,-1.999847 z"
       style="opacity:0.5;fill:none;stroke:#ffffff;stroke-width:0.199985;stroke-linecap:butt;stroke-linejoin:miter;stroke-miterlimit:10;stroke-dasharray:none;stroke-opacity:1"
       clip-path="url(#clipPath24)"
       id="rect1" /></g><g
     inkscape:groupmode="layer"
     id="foreground"
     style="display:inline;fill:none;fill-opacity:1;fill-rule:nonzero;stroke:#ffffff;stroke-width:0.5;stroke-miterlimit:0;stroke-dasharray:none;stroke-opacity:1"><rect
       y="33.239216"
       x="32.364216"
       height="41.4795"
       width="43.206738"
       id="rect136"
       style="display:inline;fill:none;fill-opacity:1;fill-rule:evenodd;stroke:#ffffff;stroke-width:2.72843;stroke-linecap:square;stroke-linejoin:round;stroke-miterlimit:4;stroke-dasharray:none;stroke-opacity:1" /><path
       d="M 67.074768,36.231976 52.70687,40.909305 c 0,0 2.582645,1.359935 3.128998,1.546321 1.23693,0.629376 0.559901,1.719933 0.559901,1.719933 l -4.827082,3.913694 1.818376,2.104568 4.42503,-3.858776 c 0,0 1.463996,-1.377015 2.001574,0.274305 l 0.933688,2.868108 z"
       style="display:inline;fill:#ffffff;fill-opacity:1;fill-rule:nonzero;stroke:#ffffff;stroke-width:0.0481058;stroke-miterlimit:0;stroke-dasharray:none;stroke-opacity:1"
       id="path4-5" /><path
       d="m 45.911158,52.897391 c -5.108404,0 -9.22081,4.112601 -9.22081,9.221007 0,5.108405 4.112406,9.220811 9.22081,9.220811 h 15.888454 c 5.108405,0 9.221,-4.112406 9.221,-9.220811 0,-5.108406 -4.112595,-9.221007 -9.221,-9.221007 z m -5.476586,4.413586 h 2.030216 v 5.43967 c 0,0.865811 0.02999,1.421256 0.0778,1.678018 0.08956,0.411999 0.292406,0.740417 0.620817,0.9912 0.328405,0.25079 0.776348,0.37621 1.34361,0.37621 0.573228,0 1.009034,-0.119518 1.301618,-0.352403 0.292583,-0.232865 0.4657,-0.525449 0.525412,-0.865812 0.05979,-0.340344 0.0896,-0.913654 0.0896,-1.707804 v -5.559079 h 2.030223 v 5.284464 c 0,1.206168 -0.05973,2.054056 -0.167208,2.555635 -0.113443,0.4956 -0.316606,0.913497 -0.60919,1.259819 -0.292588,0.340356 -0.68662,0.615175 -1.182227,0.818197 -0.4956,0.203023 -1.140459,0.30442 -1.934622,0.304415 -0.961351,0 -1.68964,-0.113285 -2.18524,-0.334213 -0.495606,-0.220934 -0.889789,-0.513701 -1.176406,-0.866003 -0.286611,-0.352294 -0.477638,-0.722487 -0.567211,-1.110616 -0.131367,-0.573228 -0.197191,-1.426867 -0.197191,-2.549434 z m 10.509133,0 h 4.275441 c 1.074801,0 1.851179,0.08948 2.340827,0.268611 0.489628,0.185106 0.87763,0.501656 1.17022,0.967406 0.292589,0.459785 0.441994,0.985304 0.441994,1.582422 0,0.758329 -0.227135,1.37919 -0.668996,1.868825 -0.435889,0.489633 -1.104536,0.80021 -1.994231,0.925611 0.435888,0.256755 0.800013,0.537471 1.086619,0.841998 0.286624,0.310494 0.674752,0.853804 1.158414,1.636028 l 1.23021,1.958422 h -2.42423 L 56.090956,65.17489 C 55.571466,64.392665 55.213212,63.897268 55.02214,63.694246 54.825096,63.491229 54.621907,63.35368 54.406946,63.276058 54.191984,63.198438 53.85168,63.162653 53.385928,63.162653 h -0.411816 v 4.203652 h -2.030407 z m 10.545121,0.0776 h 2.030217 v 8.281911 h 5.045473 v 1.689811 h -7.07569 z m -8.508899,1.624217 v 2.549637 h 1.504806 c 0.973296,0 1.582226,-0.04171 1.82703,-0.119402 0.238844,-0.0836 0.430062,-0.220978 0.567401,-0.424002 0.137334,-0.203017 0.203005,-0.453882 0.203005,-0.758404 0,-0.340356 -0.09548,-0.608835 -0.274615,-0.81783 -0.179128,-0.208983 -0.435978,-0.340458 -0.76439,-0.394197 -0.167195,-0.0239 -0.662777,-0.03582 -1.480822,-0.03582 z"
       style="display:inline;fill:#ffffff;fill-opacity:1;fill-rule:evenodd;stroke:none;stroke-width:0.891242;stroke-linecap:square;stroke-linejoin:round;stroke-miterlimit:0;stroke-dasharray:none;stroke-opacity:1"
       id="rect13" /></g><g
     inkscape:groupmode="layer"
     id="mask"
     style="display:inline;fill:none;fill-opacity:1;fill-rule:nonzero;stroke:#ffffff;stroke-width:0.5;stroke-miterlimit:0;stroke-dasharray:none;stroke-opacity:1"><path
       id="rectangle-mask"
       d="M 18.247653,18.247653 H 89.752347 V 89.752348 H 18.247653 Z"
       style="stroke-width:0.495306" /><path
       d="m 25.731405,25.667311 c -9.9769,9.937313 -9.952809,46.672619 -0.06356,56.601257 9.937335,9.97693 46.672152,9.952732 56.600712,0.06356 9.976846,-9.937259 9.952786,-46.672634 0.0641,-56.600723 -9.937082,-9.976675 -46.673098,-9.952853 -56.601246,-0.0641 z"
       id="squircle-mask"
       style="stroke-width:0.499624" /><path
       id="circle-mask"
       d="M 89.749741,54.000004 A 35.749741,35.749745 0 0 1 54,89.749757 35.749741,35.749745 0 0 1 18.250259,54.000004 35.749741,35.749745 0 0 1 54,18.250259 35.749741,35.749745 0 0 1 89.749741,54.000004 Z"
       style="stroke-width:0.500519" /><rect
       style="display:inline;fill:none;fill-opacity:0.878431;fill-rule:nonzero;stroke:#ffffff;stroke-width:0.501854;stroke-miterlimit:0;stroke-dasharray:none;stroke-opacity:1"
       id="roundedsquare-mask"
       width="71.5"
       height="71.5"
       x="18.177168"
       y="18.198624"
       ry="8.33%" /></g></svg>
